<svg width="24" height="25" viewBox="0 0 24 25" fill="none" xmlns="http://www.w3.org/2000/svg">
<path d="M1.51773 7.17747C1.954 7.68156 2.39028 8.18565 2.82656 8.68974C3.91244 7.74994 4.99832 6.81014 6.0842 5.87034C7.21237 4.89393 8.34053 3.91754 9.4687 2.94113C10.8778 1.77439 13.0238 1.64163 14.4144 2.94384C16.4982 4.73228 18.583 6.52153 20.6659 8.30921L20.7246 8.35588C21.3399 8.81871 21.9057 9.6727 21.88 10.2331C21.88 13.4224 21.88 16.6231 21.88 19.8141C21.8413 21.0135 21.0499 21.9266 19.7543 21.88C18.7095 21.88 17.6707 21.88 16.6286 21.88C15.7363 21.8341 15.2885 21.4826 15.2843 20.5806C15.2843 19.5576 15.2843 18.5365 15.2843 17.5146L15.2654 17.3212C15.033 16.1122 14.3217 14.5676 12.6512 14.1199C10.3592 13.5674 8.78878 15.7618 8.6105 17.3433L8.59571 17.5146C8.59571 18.0256 8.59571 18.5366 8.59571 19.0476C8.59571 19.5586 8.59571 20.0696 8.59571 20.5806C8.65705 21.4863 8.60209 21.5931 8.52725 21.6408C8.40535 21.7654 7.81454 21.8916 7.25143 21.88C6.77895 21.88 6.31359 21.88 5.84447 21.88C5.61039 21.88 5.37696 21.88 5.14237 21.88C5.02492 21.88 4.90768 21.88 4.79143 21.88C4.73165 21.88 4.67495 21.88 4.61602 21.88C4.58558 21.88 4.5583 21.88 4.52832 21.88C4.5126 21.88 4.49899 21.88 4.48451 21.88C4.48229 21.88 4.48067 21.88 4.47875 21.88C4.47864 21.88 4.47856 21.88 4.47851 21.88C4.47849 21.88 4.47847 21.88 4.47845 21.88C4.47845 21.88 4.47844 21.88 4.47844 21.88C4.47844 21.88 4.47844 21.88 4.47844 21.88C4.47844 21.88 4.47844 21.88 4.47844 21.88C4.47844 21.88 4.47844 21.88 4.47844 21.88C4.47844 22.5467 4.47844 19.6578 4.47844 23.88C4.47842 23.88 4.47861 23.88 4.47862 23.88C4.47872 23.88 4.47885 23.88 4.47903 23.88C4.47938 23.88 4.47989 23.88 4.48053 23.88C4.48188 23.88 4.48217 23.88 4.48316 23.88C4.48745 23.88 4.49014 23.88 4.49443 23.88C4.50139 23.88 4.50886 23.88 4.51643 23.88V21.88C3.12357 21.8481 1.92975 21.0886 2 19.8141C2 17.1744 2 14.5321 2 11.8895C2 11.3382 2 10.784 2 10.2331C2.01288 9.79966 2.35335 9.07261 2.82656 8.68974C2.39028 8.18565 1.954 7.68156 1.51773 7.17747C0.66103 7.94805 0.0761537 8.89696 0 10.2331C0 10.784 0 11.3382 0 11.8895C0 14.5321 0 17.1744 0 19.8141C-0.0359106 20.9004 0.507024 22.1992 1.45882 22.8854C2.39697 23.5851 3.42309 23.8578 4.51643 23.88V21.88C4.50886 21.88 4.50139 21.88 4.49443 21.88C4.49014 21.88 4.48745 21.88 4.48316 21.88C4.48217 21.88 4.48188 21.88 4.48053 21.88C4.47989 21.88 4.47938 21.88 4.47903 21.88C4.47885 21.88 4.47872 21.88 4.47862 21.88C4.47861 21.88 4.47842 21.88 4.47844 21.88C4.47844 26.1022 4.47844 23.2133 4.47844 23.88C4.47844 23.88 4.47844 23.88 4.47844 23.88C4.47844 23.88 4.47844 23.88 4.47844 23.88C4.47844 23.88 4.47844 23.88 4.47844 23.88C4.47844 23.88 4.47845 23.88 4.47845 23.88C4.47847 23.88 4.47849 23.88 4.47851 23.88C4.47856 23.88 4.47864 23.88 4.47875 23.88C4.48067 23.88 4.48229 23.88 4.48451 23.88C4.49899 23.88 4.5126 23.88 4.52832 23.88C4.5583 23.88 4.58558 23.88 4.61602 23.88C4.67495 23.88 4.73165 23.88 4.79143 23.88C4.90768 23.88 5.02492 23.88 5.14237 23.88C5.37696 23.88 5.61039 23.88 5.84447 23.88C6.31359 23.88 6.77895 23.88 7.25143 23.88C7.99258 23.8523 8.82092 23.89 9.77151 23.2066C10.2464 22.8542 10.552 22.1963 10.5983 21.7013C10.6615 21.208 10.5931 20.7691 10.5957 20.5806C10.5957 20.0696 10.5957 19.5586 10.5957 19.0476C10.5957 18.5366 10.5957 18.0256 10.5957 17.5146L10.5809 17.6859C10.7407 16.5832 11.5384 15.8647 12.1656 16.0601C12.6646 16.1637 13.147 16.8394 13.3032 17.7081L13.2843 17.5146C13.2843 18.5365 13.2843 19.5576 13.2843 20.5806C13.2726 21.3546 13.5284 22.3375 14.2399 22.9911C14.943 23.6418 15.804 23.872 16.6286 23.88C17.6707 23.88 18.7095 23.88 19.7543 23.88C21.8376 24.0883 23.9971 21.9372 23.88 19.8141C23.88 16.6231 23.88 13.4224 23.88 10.2331C23.815 8.61753 22.946 7.58572 21.9097 6.74486L21.9684 6.79153C19.8855 5.00386 17.8008 3.2146 15.717 1.42616C13.7155 -0.484922 10.2125 -0.372511 8.163 1.42616C7.0317 2.40527 5.90354 3.38167 4.77537 4.35807C3.68949 5.29787 2.60361 6.23767 1.51773 7.17747ZM2.82656 8.68974L1.51773 7.17747L2.82656 8.68974Z" fill="white"/>
</svg>
