<svg width="24" height="24" viewBox="0 0 24 24" fill="none" xmlns="http://www.w3.org/2000/svg">
<path d="M6.47 15.222H6.47985M5.376 20.692V22.88M18.504 20.692V22.88M4.282 5.376L19.598 1M8.658 10.846H5.376M1 13.034C1 9.4238 1 7.6187 1.96163 6.49735C2.92216 5.376 4.47017 5.376 7.564 5.376H16.316C19.4098 5.376 20.9578 5.376 21.9184 6.49735C22.8789 7.6187 22.88 9.4238 22.88 13.034C22.88 16.6442 22.88 18.4493 21.9184 19.5707C20.9578 20.692 19.4098 20.692 16.316 20.692H7.564C4.47017 20.692 2.92216 20.692 1.96163 19.5707C1.00109 18.4493 1 16.6442 1 13.034Z" stroke="white" stroke-width="2" stroke-linecap="round" stroke-linejoin="round"/>
<path d="M15.2219 16.316C17.0345 16.316 18.5039 14.8466 18.5039 13.034C18.5039 11.2214 17.0345 9.75195 15.2219 9.75195C13.4093 9.75195 11.9399 11.2214 11.9399 13.034C11.9399 14.8466 13.4093 16.316 15.2219 16.316Z" stroke="white" stroke-width="2" stroke-linecap="round" stroke-linejoin="round"/>
</svg>
